REM DIRINDEX 1\4,1\2\5,1\2\6,1\3\7,1\3\8
REM DIRNAME folder01,folder02,folder03,folder04,folder05,folder06,folder07,folder08
TITLE ""
FILE "028_Day14_Check3_Sentences.mp3" MP3
  TRACK 01 AUDIO
    TITLE "0:"
    INDEX 01 00:00:00
  TRACK 02 AUDIO
    TITLE "4:cjc124_0892"
    INDEX 01 00:00:25
  TRACK 03 AUDIO
    TITLE "0:"
    INDEX 01 00:01:52
  TRACK 04 AUDIO
    TITLE "7:cjc124_0893"
    INDEX 01 00:02:24
  TRACK 05 AUDIO
    TITLE "0:"
    INDEX 01 00:04:35
  TRACK 06 AUDIO
    TITLE "8:cjc124_0894"
    INDEX 01 00:04:48
  TRACK 07 AUDIO
    TITLE "0:"
    INDEX 01 00:06:59
  TRACK 08 AUDIO
    TITLE "7:cjc124_0895"
    INDEX 01 00:07:21
  TRACK 09 AUDIO
    TITLE "0:"
    INDEX 01 00:09:71
  TRACK 10 AUDIO
    TITLE "8:cjc124_0896"
    INDEX 01 00:10:08
  TRACK 11 AUDIO
    TITLE "0:"
    INDEX 01 00:13:22
  TRACK 12 AUDIO
    TITLE "7:cjc124_0897"
    INDEX 01 00:13:61
  TRACK 13 AUDIO
    TITLE "0:"
    INDEX 01 00:15:70
  TRACK 14 AUDIO
    TITLE "8:cjc124_0898"
    INDEX 01 00:16:08
  TRACK 15 AUDIO
    TITLE "0:"
    INDEX 01 00:18:50
  TRACK 16 AUDIO
    TITLE "7:cjc124_0899"
    INDEX 01 00:19:11
  TRACK 17 AUDIO
    TITLE "0:"
    INDEX 01 00:21:64
  TRACK 18 AUDIO
    TITLE "8:cjc124_0900"
    INDEX 01 00:22:05
  TRACK 19 AUDIO
    TITLE "0:"
    INDEX 01 00:24:10
  TRACK 20 AUDIO
    TITLE "7:cjc124_0901"
    INDEX 01 00:24:53
  TRACK 21 AUDIO
    TITLE "0:"
    INDEX 01 00:27:41
  TRACK 22 AUDIO
    TITLE "8:cjc124_0902"
    INDEX 01 00:27:59
  TRACK 23 AUDIO
    TITLE "0:"
    INDEX 01 00:30:08
  TRACK 24 AUDIO
    TITLE "7:cjc124_0903"
    INDEX 01 00:30:48
  TRACK 25 AUDIO
    TITLE "0:"
    INDEX 01 00:33:07
  TRACK 26 AUDIO
    TITLE "8:cjc124_0904"
    INDEX 01 00:33:24
  TRACK 27 AUDIO
    TITLE "0:"
    INDEX 01 00:36:23
  TRACK 28 AUDIO
    TITLE "7:cjc124_0905"
    INDEX 01 00:36:58
  TRACK 29 AUDIO
    TITLE "0:"
    INDEX 01 00:40:01
  TRACK 30 AUDIO
    TITLE "8:cjc124_0906"
    INDEX 01 00:40:17
  TRACK 31 AUDIO
    TITLE "0:"
    INDEX 01 00:42:70
  TRACK 32 AUDIO
    TITLE "7:cjc124_0907"
    INDEX 01 00:43:31
  TRACK 33 AUDIO
    TITLE "0:"
    INDEX 01 00:46:04
  TRACK 34 AUDIO
    TITLE "8:cjc124_0908"
    INDEX 01 00:46:15
  TRACK 35 AUDIO
    TITLE "0:"
    INDEX 01 00:47:74
  TRACK 36 AUDIO
    TITLE "7:cjc124_0909"
    INDEX 01 00:48:36
  TRACK 37 AUDIO
    TITLE "0:"
    INDEX 01 00:51:26
  TRACK 38 AUDIO
    TITLE "8:cjc124_0910"
    INDEX 01 00:51:42
  TRACK 39 AUDIO
    TITLE "0:"
    INDEX 01 00:54:40
  TRACK 40 AUDIO
    TITLE "7:cjc124_0911"
    INDEX 01 00:55:01
  TRACK 41 AUDIO
    TITLE "0:"
    INDEX 01 00:58:07
  TRACK 42 AUDIO
    TITLE "8:cjc124_0912"
    INDEX 01 00:58:34
  TRACK 43 AUDIO
    TITLE "0:"
    INDEX 01 01:01:19
  TRACK 44 AUDIO
    TITLE "7:cjc124_0913"
    INDEX 01 01:01:54
  TRACK 45 AUDIO
    TITLE "0:"
    INDEX 01 01:04:62
  TRACK 46 AUDIO
    TITLE "8:cjc124_0914"
    INDEX 01 01:05:05
  TRACK 47 AUDIO
    TITLE "0:"
    INDEX 01 01:08:01
  TRACK 48 AUDIO
    TITLE "7:cjc124_0915"
    INDEX 01 01:08:38
  TRACK 49 AUDIO
    TITLE "0:"
    INDEX 01 01:11:05
  TRACK 50 AUDIO
    TITLE "8:cjc124_0916"
    INDEX 01 01:11:27
  TRACK 51 AUDIO
    TITLE "0:"
    INDEX 01 01:13:49
  TRACK 52 AUDIO
    TITLE "7:cjc124_0917"
    INDEX 01 01:14:10
  TRACK 53 AUDIO
    TITLE "0:"
    INDEX 01 01:17:04
  TRACK 54 AUDIO
    TITLE "8:cjc124_0918"
    INDEX 01 01:17:22
  TRACK 55 AUDIO
    TITLE "0:"
    INDEX 01 01:19:52
  TRACK 56 AUDIO
    TITLE "7:cjc124_0919"
    INDEX 01 01:20:14
  TRACK 57 AUDIO
    TITLE "0:"
    INDEX 01 01:22:41
  TRACK 58 AUDIO
    TITLE "8:cjc124_0920"
    INDEX 01 01:22:56
  TRACK 59 AUDIO
    TITLE "0:"
    INDEX 01 01:25:29
  TRACK 60 AUDIO
    TITLE "7:cjc124_0921"
    INDEX 01 01:25:64
  TRACK 61 AUDIO
    TITLE "0:"
    INDEX 01 01:28:29
  TRACK 62 AUDIO
    TITLE "8:cjc124_0922"
    INDEX 01 01:28:45
  TRACK 63 AUDIO
    TITLE "0:"
    INDEX 01 01:30:64
  TRACK 64 AUDIO
    TITLE "7:cjc124_0923"
    INDEX 01 01:31:24
  TRACK 65 AUDIO
    TITLE "0:"
    INDEX 01 01:33:56
  TRACK 66 AUDIO
    TITLE "8:cjc124_0924"
    INDEX 01 01:33:74
  TRACK 67 AUDIO
    TITLE "0:"
    INDEX 01 01:35:31
  TRACK 68 AUDIO
    TITLE "7:cjc124_0925"
    INDEX 01 01:35:69
  TRACK 69 AUDIO
    TITLE "0:"
    INDEX 01 01:37:50
  TRACK 70 AUDIO
    TITLE "8:cjc124_0926"
    INDEX 01 01:37:73
  TRACK 71 AUDIO
    TITLE "0:"
    INDEX 01 01:39:10
